#!OML:ASF I:\Actors\actors\Patient Classification 1\Patient 1\Session 1\Subject1.ASF
:FULLY-SPECIFIED
:DEGREES
734
root -0.28278 17.72 7.68745 21.5059 -10.2846 -12.1069
lowerback 13.3723 0.990489 4.92025
upperback 8.70201 1.72987 0.449921
thorax 1.82289 1.01816 -2.49152
lowerneck 3.71515 -13.7465 -8.15988
upperneck 26.6645 -21.1273 10.737
head 9.9647 -9.86997 3.24624
rclavicle -2.94201e-014 8.74653e-015
rhumerus 68.0445 22.8757 -47.0801
rradius 24.1208
rwrist 71.8818
rhand -26.8326 -63.4113
rfingers 7.12502
rthumb -0.258402 93.3909
lclavicle -2.94201e-014 8.74653e-015
lhumerus 1.71506 -63.318 85.067
lradius 111.339
lwrist 66.1436
lhand -23.148 -12.271
lfingers 7.12502
lthumb 3.30017 17.6832
rfemur -25.5504 17.974 24.6279
rtibia 10.9967
rfoot -8.28645 -11.9263
rtoes -7.58192
lfemur -14.7636 -29.8974 4.9742
ltibia 0.0942513
lfoot -25.3032 50.9462
ltoes 17.7159
735
root -0.291017 17.7216 7.6828 21.4421 -10.0296 -12.1353
lowerback 13.5247 1.10446 5.0357
upperback 8.73211 1.89833 0.307768
thorax 1.79874 1.11089 -2.727
lowerneck 3.5043 -13.8176 -7.85799
upperneck 26.3681 -21.125 10.5361
head 9.83131 -9.85636 3.12375
rclavicle -1.98785e-014 -3.57812e-014
rhumerus 68.417 22.0613 -47.389
rradius 24.1946
rwrist 73.5802
rhand -27.6644 -64.7617
rfingers 7.12502
rthumb -1.0618 94.7388
lclavicle -1.98785e-014 -3.57812e-014
lhumerus 3.07259 -63.3418 84.1041
lradius 111.369
lwrist 66.4567
lhand -23.0453 -11.2478
lfingers 7.12502
lthumb 3.39934 18.7048
rfemur -25.5503 17.9208 24.7375
rtibia 11.1255
rfoot -8.32152 -12.0541
rtoes -7.68401
lfemur -14.8454 -29.7823 5.10321
ltibia 0.131529
lfoot -24.7657 50.7722
ltoes 17.3187
736
root -0.295297 17.7236 7.67764 21.4448 -9.75848 -12.1525
lowerback 13.6577 1.21441 5.17905
upperback 8.75272 2.0639 0.11602
thorax 1.77999 1.20485 -3.03003
lowerneck 3.37793 -13.896 -7.66766
upperneck 25.9984 -21.1515 10.4498
head 9.68722 -9.86481 3.0596
rclavicle 4.05521e-014 2.46493e-014
rhumerus 68.9288 21.3251 -47.2494
rradius 24.1726
rwrist 74.6661
rhand -27.6925 -65.9189
rfingers 7.12502
rthumb -1.08894 95.8959
lclavicle 4.05521e-014 2.46493e-014
lhumerus 4.30062 -63.3106 83.1788
lradius 111.377
lwrist 66.895
lhand -23.1879 -11.2542
lfingers 7.12502
lthumb 3.26166 18.7006
rfemur -25.6609 17.8517 24.7871
rtibia 11.2774
rfoot -8.40597 -12.1269
rtoes -7.34336
lfemur -15.0076 -29.8161 5.29127
ltibia 0.110564
lfoot -24.297 50.7435
ltoes 16.8398
737
root -0.29984 17.7248 7.67291 21.4864 -9.40325 -12.2076
lowerback 13.7888 1.33527 5.40115
upperback 8.78817 2.25166 -0.0885934
thorax 1.78782 1.31457 -3.39355
lowerneck 3.39225 -13.9169 -7.66122
upperneck 25.4037 -21.1839 10.8304
head 9.51565 -9.87368 3.18843
rclavicle -1.03368e-014 -5.96354e-014
rhumerus 69.3639 20.5201 -47.0715
rradius 24.0899
rwrist 75.4911
rhand -26.9473 -66.3804
rfingers 7.12502
rthumb -0.369165 96.3599
lclavicle -1.03368e-014 -5.96354e-014
lhumerus 5.37512 -63.4162 82.3368
lradius 111.345
lwrist 67.052
lhand -23.5653 -12.08
lfingers 7.12502
lthumb 2.89721 17.8801
rfemur -25.8086 17.8051 24.8664
rtibia 11.4327
rfoot -8.50964 -12.2552
rtoes -6.91707
lfemur -15.2325 -29.7751 5.5674
ltibia 0.0690447
lfoot -23.5854 50.6757
ltoes 15.9981
738
root -0.306435 17.725 7.66733 21.544 -8.86824 -12.3273
lowerback 13.9533 1.42825 5.70271
upperback 8.8247 2.41457 -0.244112
thorax 1.78204 1.41375 -3.74941
lowerneck 3.34586 -13.9886 -7.43941
upperneck 24.8418 -21.1958 10.8274
head 9.29503 -9.87861 3.159
rclavicle -3.97569e-015 -2.38542e-015
rhumerus 69.6979 19.7751 -46.6177
rradius 24.0533
rwrist 75.7498
rhand -25.5893 -66.2049
rfingers 7.12502
rthumb 0.942372 96.1825
lclavicle -3.97569e-015 -2.38542e-015
lhumerus 6.08993 -63.5378 81.8433
lradius 111.349
lwrist 67.0066
lhand -23.685 -12.4529
lfingers 7.12502
lthumb 2.78161 17.5087
rfemur -25.9323 17.7068 25.0524
rtibia 11.564
rfoot -8.64123 -12.4745
rtoes -6.56471
lfemur -15.5658 -29.7755 6.01036
ltibia 0.0493943
lfoot -22.8513 50.5131
ltoes 15.2992
